<?xml version="1.0" encoding="UTF-8" standalone="no"?>
<!-- Created with Inkscape (http://www.inkscape.org/) -->

<svg
   xmlns:dc="http://purl.org/dc/elements/1.1/"
   xmlns:cc="http://creativecommons.org/ns#"
   xmlns:rdf="http://www.w3.org/1999/02/22-rdf-syntax-ns#"
   xmlns:svg="http://www.w3.org/2000/svg"
   xmlns="http://www.w3.org/2000/svg"
   xmlns:sodipodi="http://sodipodi.sourceforge.net/DTD/sodipodi-0.dtd"
   xmlns:inkscape="http://www.inkscape.org/namespaces/inkscape"
   version="1.1"
   id="svg4596"
   width="949.56134"
   height="619.99408"
   viewBox="0 0 949.56134 619.99408"
   sodipodi:docname="balao.svg"
   inkscape:version="0.92.1 unknown"
   inkscape:export-filename="/home/gigik/Documentos/minhaqueridavagina/imgs/balao.png"
   inkscape:export-xdpi="300"
   inkscape:export-ydpi="300">
  <metadata
     id="metadata4602">
    <rdf:RDF>
      <cc:Work
         rdf:about="">
        <dc:format>image/svg+xml</dc:format>
        <dc:type
           rdf:resource="http://purl.org/dc/dcmitype/StillImage" />
        <dc:title></dc:title>
      </cc:Work>
    </rdf:RDF>
  </metadata>
  <defs
     id="defs4600" />
  <sodipodi:namedview
     pagecolor="#ffffff"
     bordercolor="#666666"
     borderopacity="1"
     objecttolerance="10"
     gridtolerance="10"
     guidetolerance="10"
     inkscape:pageopacity="0"
     inkscape:pageshadow="2"
     inkscape:window-width="1366"
     inkscape:window-height="713"
     id="namedview4598"
     showgrid="false"
     fit-margin-top="0"
     fit-margin-left="0"
     fit-margin-right="0"
     fit-margin-bottom="0"
     inkscape:zoom="0.35870623"
     inkscape:cx="-587.13881"
     inkscape:cy="65.964414"
     inkscape:window-x="0"
     inkscape:window-y="29"
     inkscape:window-maximized="1"
     inkscape:current-layer="svg4596" />
  <path
     style="opacity:0.64899998;fill:none;fill-opacity:0.86821708;stroke:#333333;stroke-width:14.12787437;stroke-miterlimit:4;stroke-dasharray:none;stroke-opacity:0.56862745"
     d="M 671.98617,549.96077 C 659.0959,512.79317 646.8805,478.9818 644.84081,474.82436 l -3.70849,-7.55897 -227.88637,-0.90141 -227.88633,-0.9014 -20.90848,-6.39172 C 89.856527,436.26729 43.103807,390.67835 19.664727,317.88842 -6.0964238,237.88731 8.326296,147.83638 57.344517,82.627728 77.294147,56.088848 110.04599,33.557828 147.6617,20.495698 186.70144,6.9390675 183.66962,7.0640175 473.56682,7.0640175 c 178.13417,0 278.23857,1.01469 289.05162,2.92992 78.76434,13.9508805 133.72949,58.3242305 162.52035,131.2026325 20.93449,52.99149 23.02405,120.5701 5.42082,175.31287 -8.03672,24.99271 -24.62204,57.38935 -38.1265,74.47378 -26.56706,33.60987 -85.06329,63.13116 -145.33249,73.345 -11.49966,1.94884 -22.2762,4.92674 -23.94784,6.61754 -1.67168,1.69079 -7.81726,33.18238 -13.65692,69.9813 -5.83962,36.79891 -11.39498,69.09052 -12.34517,71.75914 -1.07904,3.03041 -10.52655,-20.51855 -25.16452,-62.72543 z"
     id="path5228"
     inkscape:connector-curvature="0" />
</svg>
