<?xml version="1.0" encoding="UTF-8" standalone="no"?>
<!-- Created with Inkscape (http://www.inkscape.org/) -->

<svg
   xmlns:dc="http://purl.org/dc/elements/1.1/"
   xmlns:cc="http://creativecommons.org/ns#"
   xmlns:rdf="http://www.w3.org/1999/02/22-rdf-syntax-ns#"
   xmlns:svg="http://www.w3.org/2000/svg"
   xmlns="http://www.w3.org/2000/svg"
   xmlns:sodipodi="http://sodipodi.sourceforge.net/DTD/sodipodi-0.dtd"
   xmlns:inkscape="http://www.inkscape.org/namespaces/inkscape"
   version="1.1"
   id="svg4536"
   width="59.68"
   height="59.68"
   viewBox="0 0 59.68 59.68"
   sodipodi:docname="catarse.svg"
   inkscape:version="0.92.1 unknown">
  <metadata
     id="metadata4542">
    <rdf:RDF>
      <cc:Work
         rdf:about="">
        <dc:format>image/svg+xml</dc:format>
        <dc:type
           rdf:resource="http://purl.org/dc/dcmitype/StillImage" />
        <dc:title></dc:title>
      </cc:Work>
    </rdf:RDF>
  </metadata>
  <defs
     id="defs4540">
    <style
       id="style4647">.cls-1{fill:#4460a0}.cls-2{fill:#fff}</style>
  </defs>
  <sodipodi:namedview
     pagecolor="#ffffff"
     bordercolor="#666666"
     borderopacity="1"
     objecttolerance="10"
     gridtolerance="10"
     guidetolerance="10"
     inkscape:pageopacity="0"
     inkscape:pageshadow="2"
     inkscape:window-width="1366"
     inkscape:window-height="713"
     id="namedview4538"
     showgrid="false"
     inkscape:zoom="8"
     inkscape:cx="10.63947"
     inkscape:cy="29.137263"
     inkscape:window-x="0"
     inkscape:window-y="29"
     inkscape:window-maximized="1"
     inkscape:current-layer="svg4536"
     fit-margin-top="0"
     fit-margin-left="0"
     fit-margin-right="0"
     fit-margin-bottom="0" />
  <path
     style="fill:#f9f9f9;fill-opacity:1;stroke:none;stroke-width:1.02243674;stroke-opacity:1"
     id="path4673"
     sodipodi:type="arc"
     sodipodi:cx="29.84"
     sodipodi:cy="29.84"
     sodipodi:rx="29.84"
     sodipodi:ry="29.84"
     sodipodi:start="0"
     sodipodi:end="6.2830749"
     d="M 59.68,29.84 A 29.84,29.84 0 0 1 29.840824,59.68 29.84,29.84 0 0 1 4.546775e-8,29.841647 29.84,29.84 0 0 1 29.837529,1.0230244e-7 29.84,29.84 0 0 1 59.68,29.836706 L 29.84,29.84 Z" />
  <g
     id="g4546"
     transform="matrix(0.06081511,0,0,0.06081511,-50.151866,-1.0492107)">
    <path
       style="fill:#cdcfd2"
       d="m 1248.5,802.02857 c -22.9585,-6.10468 -52.7056,-27.41873 -69.1248,-49.52857 -2.0422,-2.75 -3.8436,-5.16905 -4.0031,-5.37566 -0.1596,-0.20661 -3.8111,0.19614 -8.1145,0.895 -25.4469,4.1325 -45.6602,-11.87992 -56.6111,-44.84576 -5.0206,-15.1135 -6.9542,-27.11811 -6.9542,-43.17358 0,-27.23144 6.7059,-49.38894 21.8173,-72.08795 10.7454,-16.14084 27.3103,-31.43412 43.8102,-40.44709 9.4181,-5.14451 10.1672,-4.04105 4.9214,7.2493 -5.3957,11.61331 -8.1971,22.5539 -8.926,34.8601 -2.083,35.16976 16.2519,70.81644 46.6273,90.65268 24.5737,16.0475 50.4987,22.10691 78.6696,18.38729 15.9256,-2.10278 27.4411,-5.49746 40.9397,-12.06868 13.9429,-6.78754 24.4586,-14.59832 36.1029,-26.81625 15.2245,-15.97459 25.7064,-33.41368 32.4059,-53.91498 5.2998,-16.21782 6.3982,-24.83626 6.4127,-50.31442 0.011,-20.03608 -0.2819,-24.46054 -2.2763,-34.33379 -10.8859,-53.89025 -42.2292,-97.38462 -104.5598,-145.09511 -21.2413,-16.25908 -32.0748,-28.73224 -39.8515,-45.88336 -10.1557,-22.39797 -10.4787,-50.4706 -0.8256,-71.75996 7.7548,-17.10291 23.2445,-32.32134 40.7994,-40.08494 18.6099,-8.23019 43.4776,-8.55078 63.0232,-0.81249 30.0585,11.90047 64.8141,49.59434 87.1057,94.46965 12.4531,25.0694 19.2281,46.32251 23.4304,73.50137 l 2.2898,14.80995 3.9986,1.18064 c 13.9569,4.12098 29.242,17.26907 36.2182,31.15455 7.6873,15.30095 10.8893,34.48899 9.821,58.85349 -1.0482,23.90769 -5.7999,46.22 -14.2254,66.79731 -2.4315,5.93853 -4.421,11.27838 -4.421,11.86635 0,0.58796 2.37,3.62896 5.2668,6.75776 8.89,9.60227 14.6985,24.45243 14.6985,37.57858 0,19.02053 -12.9772,43.35372 -34.8703,65.38407 -13.8325,13.91932 -27.1931,23.74503 -45.0297,33.11593 l -8.5653,4.5 0.3206,6 c 1.0689,20.00052 -10.5545,40.33213 -28.4266,49.72363 -24.8003,13.03214 -62.3335,16.54047 -97.6103,9.12389 l -7.7163,-1.62227 -6.9328,7.4235 c -3.813,4.08292 -9.1493,8.62993 -11.8585,10.10447 -10.73,5.84 -24.7441,7.24057 -37.7761,3.77535 z"
       id="path4584"
       inkscape:connector-curvature="0"
       sodipodi:nodetypes="sscscsccccssccccscccsssccccccscscsccsscccs" />
    <path
       style="fill:#f0d8a5"
       d="m 1246.9008,800.64297 c -9.3359,-2.76405 -21.5633,-8.88605 -32.6954,-16.36988 -10.3541,-6.96078 -26.5099,-22.17519 -33.432,-31.48399 l -5.1727,-6.9563 -4.5504,0.8336 c -2.5026,0.45848 -8.4408,0.81274 -13.196,0.78725 -7.9064,-0.0424 -9.2856,-0.36268 -16.1317,-3.74621 -16.7393,-8.27297 -28.4126,-27.49921 -34.9077,-57.49377 -2.576,-11.89565 -3.0584,-36.56618 -0.9428,-48.21367 6.768,-37.26169 30.0209,-70.31337 62.9738,-89.5112 8.1103,-4.72494 9.3359,-3.77675 5.3483,4.13786 -15.6132,30.98899 -12.4787,69.42936 8.1439,99.87334 7.9807,11.7815 19.9355,22.3083 35.9853,31.6868 33.8035,19.75266 75.705,20.62558 113.2284,2.35885 13.9611,-6.7964 24.4599,-14.59974 36.1609,-26.87693 20.6952,-21.71427 34.6228,-50.36853 38.9666,-80.16872 2.1106,-14.47992 1.2805,-44.34695 -1.6384,-58.94527 -10.4813,-52.42078 -43.9913,-99.369 -102.0919,-143.03293 -15.4598,-11.61837 -22.1913,-17.75082 -29.4681,-26.84561 -13.4617,-16.82515 -20.4865,-36.5726 -20.4739,-57.55441 0.02,-32.67572 15.7788,-58.22076 44.493,-72.12196 12.4193,-6.01244 21.1856,-7.99982 35.2874,-7.99982 13.5938,0 23.3082,2.30436 35.9515,8.52811 12.4733,6.14004 22.5445,13.95117 36.2666,28.12781 35.8865,37.07538 59.5521,84.76146 67.2497,135.508 l 2.2401,14.76787 5.0023,1.62347 c 9.1282,2.96245 16.8818,7.82561 24.6241,15.44451 12.1876,11.99325 18.4524,26.96299 21.0095,50.20172 2.9795,27.07824 -2.3528,63.24396 -13.176,89.36404 -5.9951,14.46814 -6.0041,13.53418 0.1965,20.23161 9.0039,9.72531 14.8136,24.51178 14.8136,37.70286 0,19.02053 -12.9772,43.35372 -34.8703,65.38407 -13.8325,13.91932 -27.1931,23.74503 -45.0297,33.11593 l -8.5653,4.5 0.3206,6 c 0.4297,8.03972 -2.0071,19.10218 -5.9898,27.1922 -11.1047,22.55678 -41.4455,35.35538 -83.8308,35.36216 -14.8703,0.002 -16.8312,-0.21983 -42.2955,-4.7927 -2.4156,-0.4338 -3.5332,0.31321 -8.2251,5.49795 -13.5395,14.96167 -31.5564,19.81126 -51.5786,13.88336 z"
       id="path4582"
       inkscape:connector-curvature="0"
       sodipodi:nodetypes="sccccccccsccsssccscccsccsccccccscscccccss" />
    <path
       style="fill:#bbbec1"
       d="m 1246.9008,800.64297 c -9.3359,-2.76405 -21.5633,-8.88605 -32.6954,-16.36988 -10.3541,-6.96078 -26.5099,-22.17519 -33.432,-31.48399 l -5.1727,-6.9563 -4.5504,0.8336 c -2.5026,0.45848 -8.4408,0.81274 -13.196,0.78725 -7.9064,-0.0424 -9.2856,-0.36268 -16.1317,-3.74621 -16.7393,-8.27297 -28.4126,-27.49921 -34.9077,-57.49377 -2.576,-11.89565 -3.0584,-36.56618 -0.9428,-48.21367 6.768,-37.26169 30.0209,-70.31337 62.9738,-89.5112 8.1103,-4.72494 9.3359,-3.77675 5.3483,4.13786 -24.2512,48.13355 -2.4582,109.00404 48.5684,135.65819 21.438,11.19828 46.0406,15.08725 71.2374,11.26058 37.7948,-5.73996 68.2903,-25.65796 90.9531,-59.40571 6.5164,-9.70361 14.6166,-27.45336 17.8617,-39.13972 5.8336,-21.00796 6.8236,-57.12398 2.2052,-80.44527 -10.3494,-52.26053 -43.9629,-99.36341 -102.071,-143.03293 -15.4598,-11.61837 -22.1913,-17.75082 -29.4681,-26.84561 -13.4617,-16.82515 -20.4865,-36.5726 -20.4739,-57.55441 0.02,-32.67572 15.7788,-58.22076 44.493,-72.12196 12.4193,-6.01244 21.1856,-7.99982 35.2874,-7.99982 13.5938,0 23.3082,2.30436 35.9515,8.52811 12.4733,6.14004 22.5445,13.95117 36.2666,28.12781 19.0156,19.64554 31.8537,38.0586 44.5138,63.84408 12.447,25.35142 19.5121,48.00856 23.1389,74.20469 l 1.8282,13.20468 6.0068,2.16057 c 16.0499,5.77294 29.2157,17.97834 36.0413,33.41206 13.126,29.68041 10.0808,82.90951 -7.0622,123.44086 l -4.4084,10.42285 3.8785,4.20764 c 14.9917,16.26401 20.1968,37.77635 13.8998,57.44665 -2.1093,6.58886 -9.6506,20.49739 -14.9974,27.65994 -16.4261,22.00447 -35.6874,38.51771 -59.7911,51.26062 L 1437.5,716.5 l -0.5955,11 c -0.6815,12.59105 -2.7115,18.98806 -9.0263,28.44457 -8.8483,13.25038 -23.6801,21.15273 -49.3256,26.28052 -9.1125,1.82204 -14.3877,2.206 -30.0526,2.18744 -16.7662,-0.0199 -20.4956,-0.33936 -31.7214,-2.71752 -14.9332,-3.16357 -13.7786,-3.05668 -13.7786,-1.2756 0,2.20186 -9.4628,12.02735 -15.0141,15.58965 -11.2824,7.2399 -26.4897,8.95511 -41.0851,4.63391 z"
       id="path4580"
       inkscape:connector-curvature="0"
       sodipodi:nodetypes="sccccccccsccscccscccsccsccsccccccscccscsscs" />
    <path
       style="fill:#acafb4"
       d="m 1255,802.37636 c -11.1492,-2.12802 -25.983,-8.76476 -38.7167,-17.32206 -15.7908,-10.61179 -23.7478,-18.26101 -39.9322,-38.38766 -0.921,-1.14526 -2.108,-1.58399 -3.1627,-1.16894 -4.7823,1.88194 -13.99,2.56801 -20.1254,1.49958 -21.924,-3.8179 -36.2906,-22.05859 -45.21,-57.40123 -2.9371,-11.63813 -3.6816,-38.57479 -1.4249,-51.55695 4.652,-26.7625 18.6087,-52.57719 38.5866,-71.37095 10.7809,-10.1419 28.8254,-22.16143 30.6024,-20.38443 0.3347,0.33473 -0.9919,4.34533 -2.9479,8.91244 -6.9695,16.27284 -8.1753,22.36699 -8.0731,40.80384 0.082,14.89854 0.353,17.36386 2.7868,25.40039 10.7977,35.65369 35.1408,60.85633 70.9959,73.50268 39.5203,13.93907 88.6894,3.53262 121.4751,-25.70971 14.304,-12.75806 26.0891,-28.56541 34.7078,-46.55364 9.7889,-20.43042 13.6556,-39.80743 13.5973,-68.13972 -0.1398,-67.86967 -33.399,-122.95876 -108.5348,-179.77183 -18.78,-14.20028 -28.8702,-25.35945 -36.3746,-40.22817 -7.8807,-15.61423 -10.8149,-29.19862 -9.9806,-46.20681 0.6479,-13.20792 2.423,-20.11254 8.1737,-31.79319 9.6484,-19.59791 28.867,-35.37769 50.0573,-41.10054 9.0951,-2.45632 27.4485,-2.97002 36.8259,-1.03074 22.9103,4.73796 46.3345,21.39879 68.8724,48.98672 30.2345,37.00891 49.0454,79.45008 55.3692,124.92404 l 1.7477,12.56748 6.0924,2.19177 c 16.1401,5.80649 29.2868,17.97664 36.1269,33.44327 13.126,29.68041 10.0808,82.90951 -7.0622,123.44086 l -4.4084,10.42285 3.8785,4.20764 c 14.9917,16.26401 20.1968,37.77635 13.8998,57.44665 -2.1093,6.58886 -9.6506,20.49739 -14.9974,27.65994 -16.4261,22.00447 -35.6874,38.51771 -59.7911,51.26062 L 1437.5,716.5 l -0.5955,11 c -0.6815,12.59105 -2.7115,18.98806 -9.0263,28.44457 -8.8483,13.25038 -23.6801,21.15273 -49.3256,26.28052 -9.1125,1.82204 -14.3877,2.206 -30.0526,2.18744 -16.8215,-0.0199 -20.4773,-0.33529 -31.8838,-2.7504 -7.0861,-1.50033 -12.9542,-2.60059 -13.0403,-2.445 -0.086,0.15558 -2.0236,2.81491 -4.3055,5.90962 -4.7871,6.49197 -14.0759,13.12198 -21.6211,15.43227 -5.3045,1.62418 -18.2283,2.66117 -22.6493,1.81734 z"
       id="path4578"
       inkscape:connector-curvature="0"
       sodipodi:nodetypes="ccccsscsccccssccsccccccccsccccccscccscccccc" />
    <path
       style="fill:#f0a15e"
       d="m 1246.9669,799.66203 c -21.6464,-6.41023 -47.3251,-24.7531 -64.1512,-45.82458 l -7.1801,-8.99168 -3.5678,0.82712 c -1.9623,0.45491 -7.8428,0.8 -13.0678,0.76686 -13.4205,-0.0851 -19.238,-2.49375 -28.6159,-11.84789 -5.3771,-5.36345 -8.2186,-9.29641 -11.6284,-16.09488 -19.6632,-39.20501 -18.1076,-86.3802 4.0846,-123.86834 5.5071,-9.30282 17.9258,-24.37453 25.0747,-30.43133 9.5545,-8.09487 26.1527,-18.79627 27.3291,-17.61989 0.2737,0.27371 -1.1721,4.41826 -3.2128,9.21012 -7.1981,16.90154 -9.4655,30.96168 -7.9259,49.14775 2.186,25.82032 17.4039,54.28713 37.074,69.35109 22.7377,17.41322 43.6843,25.44694 68.8206,26.39501 41.1445,1.55185 77.6702,-14.65244 103.9449,-46.11426 9.4489,-11.31435 14.4545,-19.066 20.6168,-31.92741 9.7889,-20.43042 13.6556,-39.80743 13.5973,-68.13972 -0.1398,-67.86967 -33.399,-122.95876 -108.5348,-179.77183 -18.78,-14.20028 -28.8702,-25.35945 -36.3746,-40.22817 -7.8807,-15.61423 -10.8149,-29.19862 -9.9806,-46.20681 0.6479,-13.20792 2.423,-20.11254 8.1737,-31.79319 9.6484,-19.59791 28.867,-35.37769 50.0573,-41.10054 9.0951,-2.45632 27.4485,-2.97002 36.8259,-1.03074 22.9103,4.73796 46.3345,21.39879 68.8724,48.98672 30.2345,37.00891 49.0454,79.45008 55.3692,124.92404 l 1.7477,12.56748 6.0924,2.19177 c 16.1401,5.80649 29.2868,17.97664 36.1269,33.44327 13.126,29.68041 10.0808,82.90951 -7.0622,123.44086 l -4.4084,10.42285 3.8785,4.20764 c 14.9917,16.26401 20.1968,37.77635 13.8998,57.44665 -2.1093,6.58886 -9.6506,20.49739 -14.9974,27.65994 -16.4261,22.00447 -35.6874,38.51771 -59.7911,51.26062 L 1437.5,716.5 l -0.5955,11 c -0.6815,12.59105 -2.7115,18.98806 -9.0263,28.44457 -8.8483,13.25038 -23.6801,21.15273 -49.3256,26.28052 -9.1125,1.82204 -14.3877,2.206 -30.0526,2.18744 -16.8519,-0.02 -20.4669,-0.33301 -31.9749,-2.76884 l -12.9749,-2.74633 -2.0237,2.80132 c -12.9525,17.92985 -32.7082,24.43428 -54.5596,17.96335 z"
       id="path4576"
       inkscape:connector-curvature="0"
       sodipodi:nodetypes="scccccccccccsscccsccccccccsccccccscccscsccs" />
    <path
       style="fill:#e35b9a"
       d="m 1246.9669,799.66203 c -21.6464,-6.41023 -47.3251,-24.7531 -64.1512,-45.82458 l -7.1801,-8.99168 -3.5678,0.82712 c -1.9623,0.45491 -7.8428,0.8 -13.0678,0.76686 -13.4205,-0.0851 -19.238,-2.49375 -28.6159,-11.84789 -5.3771,-5.36345 -8.2186,-9.29641 -11.6284,-16.09488 -19.6632,-39.20501 -18.1076,-86.3802 4.0846,-123.86834 5.5071,-9.30282 17.9258,-24.37453 25.0747,-30.43133 9.5545,-8.09487 26.1527,-18.79627 27.3291,-17.61989 0.2737,0.27371 -1.1721,4.41826 -3.2128,9.21012 -7.2504,17.02425 -9.4709,30.94316 -7.8835,49.41642 2.5159,29.27837 20.126,58.78192 45.1681,75.67383 35.532,23.96765 78.4011,27.647 118.6628,10.18454 28.0689,-12.17415 54.5495,-38.96649 68.4559,-69.26189 5.399,-11.76163 9.3915,-25.61066 10.0578,-34.88783 1.9359,-26.95336 2.1126,-32.56309 1.3838,-43.92136 -4.0286,-62.78199 -37.4449,-114.72311 -108.252,-168.26308 -18.78,-14.20028 -28.8702,-25.35945 -36.3746,-40.22817 -7.8807,-15.61423 -10.8149,-29.19862 -9.9806,-46.20681 0.6479,-13.20792 2.423,-20.11254 8.1737,-31.79319 9.6484,-19.59791 28.867,-35.37769 50.0573,-41.10054 9.0951,-2.45632 27.4485,-2.97002 36.8259,-1.03074 22.9103,4.73796 46.3345,21.39879 68.8724,48.98672 30.0174,36.74316 48.9309,79.23158 55.2625,124.14456 2.2182,15.73491 1.9151,14.99896 6.7668,16.43149 17.3154,5.11258 32.8881,21.25998 39.1582,40.60335 4.7228,14.5699 6.1628,45.81211 3.1036,67.33507 -2.4932,17.54129 -9.1288,40.54051 -15.1027,52.34685 -1.3127,2.59421 -2.3867,5.23407 -2.3867,5.86634 0,0.63227 2.3625,3.70215 5.25,6.82196 17.8641,19.3013 19.7267,45.526 5.0301,70.82263 -13.9994,24.09655 -40.0265,48.31309 -67.3736,62.68686 l -10.776,5.66391 0.086,9.21077 c 0.2268,24.25137 -12.5317,41.76451 -36.9042,50.65691 -13.5402,4.94023 -26.0197,7.12221 -44.3124,7.74782 -17.5887,0.60154 -28.348,-0.34411 -42.9875,-3.77825 -6.0812,-1.42654 -8.5958,-1.66575 -8.8698,-0.84378 -0.9522,2.85652 -9.26,11.77895 -14.1535,15.20061 -11.1863,7.82173 -26.9722,9.84633 -42.0223,5.38949 z"
       id="path4574"
       inkscape:connector-curvature="0"
       sodipodi:nodetypes="cccccccccccscscccsccccccccsccsssscccsccscc" />
    <path
       style="fill:#efbd19"
       d="m 1246.9669,799.66203 c -21.6464,-6.41023 -47.3251,-24.7531 -64.1512,-45.82458 l -7.1801,-8.99168 -3.5678,0.82712 c -1.9623,0.45491 -7.8428,0.8 -13.0678,0.76686 -13.4205,-0.0851 -19.238,-2.49375 -28.6159,-11.84789 -5.3771,-5.36345 -8.2186,-9.29641 -11.6284,-16.09488 -19.6632,-39.20501 -18.1076,-86.3802 4.0846,-123.86834 5.5071,-9.30282 17.9258,-24.37453 25.0747,-30.43133 9.5545,-8.09487 26.1527,-18.79627 27.3291,-17.61989 0.2737,0.27371 -1.1721,4.41826 -3.2128,9.21012 -4.8279,11.33601 -6.8125,18.77407 -7.9171,29.67225 -5.0779,50.09817 28.648,97.28992 79.9978,111.93862 42.3073,12.06912 89.5153,-0.40247 121.2816,-32.04065 25.77,-25.666 39.9316,-55.01508 43.5473,-90.24895 5.1778,-50.4562 -9.3764,-97.86952 -43.0076,-140.106 -15.7476,-19.77698 -35.7264,-38.68925 -62.575,-59.23451 -15.5043,-11.86426 -28.1884,-24.30006 -33.8747,-33.21158 -18.1385,-28.42626 -20.0734,-60.78973 -5.3094,-88.80189 4.0676,-7.71751 19.849,-23.80803 28.0842,-28.6344 16.0146,-9.38551 35.7102,-12.94184 53.7416,-9.70384 19.2105,3.44973 35.8597,13.29146 55.0146,32.52044 38.1985,38.3463 62.0671,86.11219 69.9838,140.05184 1.0547,7.1865 2.1566,13.45292 2.4486,13.92538 0.292,0.47246 2.0794,1.14951 3.9719,1.50456 7.0906,1.33021 17.7508,7.70643 25.065,14.99225 10.3879,10.3476 15.8873,21.8023 19.0236,39.62378 1.9488,11.07346 1.939,40.06581 -0.018,53.83507 -2.4932,17.54129 -9.1288,40.54051 -15.1027,52.34685 -1.3127,2.59421 -2.3867,5.23407 -2.3867,5.86634 0,0.63227 2.3625,3.70215 5.25,6.82196 17.8641,19.3013 19.7267,45.526 5.0301,70.82263 -13.9994,24.09655 -40.0265,48.31309 -67.3736,62.68686 l -10.776,5.66391 0.086,9.21077 c 0.2268,24.25137 -12.5317,41.76451 -36.9042,50.65691 -13.5402,4.94023 -26.0197,7.12221 -44.3124,7.74782 -17.5887,0.60154 -28.348,-0.34411 -42.9875,-3.77825 -6.0812,-1.42654 -8.5958,-1.66575 -8.8698,-0.84378 -0.9522,2.85652 -9.26,11.77895 -14.1535,15.20061 -11.1863,7.82173 -26.9722,9.84633 -42.0223,5.38949 z"
       id="path4572"
       inkscape:connector-curvature="0"
       sodipodi:nodetypes="scccccccccccscssccccsscscscccsssscccsccss" />
    <path
       style="fill:#898d94"
       d="m 1246.9669,799.66203 c -21.6464,-6.41023 -47.3251,-24.7531 -64.1512,-45.82458 l -7.1801,-8.99168 -3.5678,0.82712 c -1.9623,0.45491 -7.8428,0.8 -13.0678,0.76686 -13.4205,-0.0851 -19.238,-2.49375 -28.6159,-11.84789 -5.3771,-5.36345 -8.2186,-9.29641 -11.6284,-16.09488 -19.6632,-39.20501 -18.1076,-86.3802 4.0846,-123.86834 5.5071,-9.30282 17.9258,-24.37453 25.0747,-30.43133 9.5545,-8.09487 26.1527,-18.79627 27.3291,-17.61989 0.2737,0.27371 -1.1721,4.41826 -3.2128,9.21012 -7.2504,17.02425 -9.4709,30.94316 -7.8835,49.41642 1.9568,22.77192 13.0095,45.92607 30.151,63.1631 3.9003,3.92199 5.4294,6.54336 7.8749,13.5 11.2279,31.93954 32.0912,58.79236 60.6215,78.02511 7.7177,5.20267 23.4571,13.09984 32.2048,16.15861 3.575,1.25006 6.8703,2.59287 7.323,2.98402 1.3078,1.13011 -7.4167,11.10039 -13.3338,15.23774 -11.1863,7.82173 -26.9722,9.84633 -42.0223,5.38949 z M 1351,730.00725 c -11.1894,-1.29575 -26.0265,-4.58982 -36.3379,-8.06754 -10.5044,-3.54284 -31.7237,-13.75407 -36.1621,-17.40203 l -3,-2.46575 4.6776,-0.036 c 13.2035,-0.10151 33.4513,-4.74978 47.8011,-10.97363 23.3323,-10.11976 46.8783,-31.48952 61.2208,-55.56233 16.8229,-28.23612 23.5039,-61.60286 19.7514,-98.64405 -2.2192,-21.90537 -7.3761,-40.30829 -16.9544,-60.50374 -16.7749,-35.36925 -44.4388,-66.76134 -88.6382,-100.58391 -15.5043,-11.86426 -28.1884,-24.30006 -33.8747,-33.21158 -18.1385,-28.42626 -20.0734,-60.78973 -5.3094,-88.80189 4.0676,-7.71751 19.849,-23.80803 28.0842,-28.6344 16.0146,-9.38551 35.7102,-12.94184 53.7416,-9.70384 19.2105,3.44973 35.8597,13.29146 55.0146,32.52044 38.1985,38.3463 62.0671,86.11219 69.9838,140.05184 1.0547,7.1865 2.1566,13.45292 2.4486,13.92538 0.292,0.47246 2.0794,1.14951 3.9719,1.50456 7.0906,1.33021 17.7508,7.70643 25.065,14.99225 10.3879,10.3476 15.8873,21.8023 19.0236,39.62378 1.9488,11.07346 1.939,40.06581 -0.018,53.83507 -2.4932,17.54129 -9.1288,40.54051 -15.1027,52.34685 -1.3127,2.59421 -2.3867,5.23407 -2.3867,5.86634 0,0.63227 2.3625,3.70215 5.25,6.82196 17.8641,19.3013 19.7267,45.526 5.0301,70.82263 -9.957,17.13854 -29.0692,37.52634 -47.1402,50.28652 -8.75,6.17849 -26.473,16.48628 -36.1391,21.01867 -6.2995,2.95385 -22.821,7.64399 -33.5008,9.51025 -10.7572,1.87978 -36.0371,2.67575 -46.5,1.46412 z"
       id="path4570"
       inkscape:connector-curvature="0"
       sodipodi:nodetypes="sccccccccccsccccccscccccsccsccccsscscscccsssscscc" />
    <path
       style="fill:#ee9020"
       d="m 1246.9669,799.66203 c -21.6464,-6.41023 -47.3251,-24.7531 -64.1512,-45.82458 l -7.1801,-8.99168 -3.5678,0.82712 c -1.9623,0.45491 -7.8428,0.8 -13.0678,0.76686 -13.4205,-0.0851 -19.238,-2.49375 -28.6159,-11.84789 -5.3771,-5.36345 -8.2186,-9.29641 -11.6284,-16.09488 -19.6632,-39.20501 -18.1076,-86.3802 4.0846,-123.86834 5.5071,-9.30282 17.9258,-24.37453 25.0747,-30.43133 9.5545,-8.09487 26.1527,-18.79627 27.3291,-17.61989 0.2737,0.27371 -1.1721,4.41826 -3.2128,9.21012 -7.2504,17.02425 -9.4709,30.94316 -7.8835,49.41642 1.9568,22.77192 13.0095,45.92607 30.151,63.1631 3.9003,3.92199 5.4294,6.54336 7.8749,13.5 11.2279,31.93954 32.0912,58.79236 60.6215,78.02511 7.7177,5.20267 23.4571,13.09984 32.2048,16.15861 3.575,1.25006 6.8703,2.59287 7.323,2.98402 1.3078,1.13011 -7.4167,11.10039 -13.3338,15.23774 -11.1863,7.82173 -26.9722,9.84633 -42.0223,5.38949 z M 1351,730.00725 c -11.1894,-1.29575 -26.0265,-4.58982 -36.3379,-8.06754 -10.5044,-3.54284 -31.7237,-13.75407 -36.1621,-17.40203 l -3,-2.46575 4.6776,-0.036 c 13.2035,-0.10151 33.4513,-4.74978 47.8011,-10.97363 23.3323,-10.11976 46.8783,-31.48952 61.2208,-55.56233 16.8229,-28.23612 23.5039,-61.60286 19.7514,-98.64405 -2.2192,-21.90537 -7.3761,-40.30829 -16.9544,-60.50374 -16.7749,-35.36925 -44.4388,-66.76134 -88.6382,-100.58391 -15.5043,-11.86426 -28.1884,-24.30006 -33.8747,-33.21158 -18.1385,-28.42626 -20.0734,-60.78973 -5.3094,-88.80189 4.0676,-7.71751 19.849,-23.80803 28.0842,-28.6344 16.0146,-9.38551 35.7102,-12.94184 53.7416,-9.70384 19.2105,3.44973 35.8597,13.29146 55.0146,32.52044 38.1985,38.3463 62.0671,86.11219 69.9838,140.05184 1.0547,7.1865 2.1566,13.45292 2.4486,13.92538 0.292,0.47246 2.0794,1.14951 3.9719,1.50456 7.0906,1.33021 17.7508,7.70643 25.065,14.99225 10.3879,10.3476 15.8873,21.8023 19.0236,39.62378 1.9488,11.07346 1.939,40.06581 -0.018,53.83507 -2.4932,17.54129 -9.1288,40.54051 -15.1027,52.34685 -1.3127,2.59421 -2.3867,5.23407 -2.3867,5.86634 0,0.63227 2.3625,3.70215 5.25,6.82196 17.8641,19.3013 19.7267,45.526 5.0301,70.82263 -9.957,17.13854 -29.0692,37.52634 -47.1402,50.28652 -8.75,6.17849 -26.473,16.48628 -36.1391,21.01867 -6.2995,2.95385 -22.821,7.64399 -33.5008,9.51025 -10.7572,1.87978 -36.0371,2.67575 -46.5,1.46412 z"
       id="path4568"
       inkscape:connector-curvature="0"
       sodipodi:nodetypes="sccccccccccsccccccscccccsccsccccsscscscccsssscscc" />
    <path
       style="fill:#78958a"
       d="m 1246.9669,799.66203 c -21.6464,-6.41023 -47.3251,-24.7531 -64.1512,-45.82458 l -7.1801,-8.99168 -3.5678,0.82712 c -1.9623,0.45491 -7.8428,0.8 -13.0678,0.76686 -13.4205,-0.0851 -19.238,-2.49375 -28.6159,-11.84789 -5.3771,-5.36345 -8.2186,-9.29641 -11.6284,-16.09488 -19.6632,-39.20501 -18.1076,-86.3802 4.0846,-123.86834 5.5071,-9.30282 17.9258,-24.37453 25.0747,-30.43133 9.5545,-8.09487 26.1527,-18.79627 27.3291,-17.61989 0.2737,0.27371 -1.1721,4.41826 -3.2128,9.21012 -7.2504,17.02425 -9.4709,30.94316 -7.8835,49.41642 1.9568,22.77192 13.0095,45.92607 30.151,63.1631 3.9003,3.92199 5.4294,6.54336 7.8749,13.5 11.2279,31.93954 32.0912,58.79236 60.6215,78.02511 7.7177,5.20267 23.4571,13.09984 32.2048,16.15861 3.575,1.25006 6.8703,2.59287 7.323,2.98402 1.3078,1.13011 -7.4167,11.10039 -13.3338,15.23774 -11.1863,7.82173 -26.9722,9.84633 -42.0223,5.38949 z M 1359.552,672.21865 c -0.261,-0.26094 2.9418,-3.90438 7.1172,-8.09654 11.3383,-11.38383 21.0299,-24.61431 27.618,-37.70293 12.8154,-25.46 17.9689,-56.93722 14.6637,-89.56323 -2.2192,-21.90537 -7.3761,-40.30829 -16.9544,-60.50374 -16.7749,-35.36925 -44.4388,-66.76134 -88.6382,-100.58391 -15.5043,-11.86426 -28.1884,-24.30006 -33.8747,-33.21158 -18.1385,-28.42626 -20.0734,-60.78973 -5.3094,-88.80189 4.0676,-7.71751 19.849,-23.80803 28.0842,-28.6344 16.0146,-9.38551 35.7102,-12.94184 53.7416,-9.70384 19.2105,3.44973 35.8597,13.29146 55.0146,32.52044 38.1985,38.3463 62.0671,86.11219 69.9838,140.05184 1.0547,7.1865 2.1566,13.45292 2.4486,13.92538 0.292,0.47246 2.0794,1.14951 3.9719,1.50456 7.0906,1.33021 17.7508,7.70643 25.065,14.99225 10.3879,10.3476 15.8873,21.8023 19.0236,39.62378 1.9488,11.07346 1.939,40.06581 -0.018,53.83507 -2.4932,17.54129 -9.1288,40.54051 -15.1027,52.34685 -1.3127,2.59421 -2.3867,5.47499 -2.3867,6.40173 0,2.34554 -8.0937,16.21915 -15.3906,26.38151 -7.7142,10.74349 -24.6591,28.35093 -35.2596,36.6384 -21.748,17.00243 -46.9386,29.17026 -72.8498,35.18867 -10.7862,2.50532 -20.2948,4.0448 -20.948,3.39158 z"
       id="path4566"
       inkscape:connector-curvature="0"
       sodipodi:nodetypes="sccccccccccsccccccscsccsccccsscscscccsccscc" />
    <path
       style="fill:#dd3181"
       d="m 1246.9669,799.66203 c -21.8259,-6.46339 -47.0629,-24.55546 -64.5076,-46.24471 -7.4611,-9.27646 -7.7498,-9.50935 -10.8125,-8.7241 -1.7308,0.44373 -7.6468,0.80162 -13.1468,0.79531 -9.2384,-0.0106 -10.5084,-0.2593 -16.6757,-3.26564 -19.9619,-9.73068 -34.0986,-40.70627 -35.4713,-77.72289 -0.8683,-23.4172 3.1451,-42.34688 13.1245,-61.90211 9.5985,-18.80881 25.8707,-36.95365 43.5515,-48.5635 9.1831,-6.02994 11.6502,-7.13745 10.6578,-4.78439 -4.5904,10.88386 -6.3038,15.76346 -8.3396,23.75 -8.0565,31.60525 3.5442,69.81806 28.9516,95.36706 3.9003,3.92199 5.4294,6.54336 7.8749,13.5 11.2279,31.93954 32.0912,58.79236 60.6215,78.02511 7.7177,5.20267 23.4571,13.09984 32.2048,16.15861 3.575,1.25006 6.8703,2.59287 7.323,2.98402 1.3078,1.13011 -7.4167,11.10039 -13.3338,15.23774 -11.1863,7.82173 -26.9722,9.84633 -42.0223,5.38949 z M 1359.552,672.21865 c -0.261,-0.26094 2.9418,-3.90438 7.1172,-8.09654 11.3383,-11.38383 21.0299,-24.61431 27.618,-37.70293 12.8154,-25.46 17.9689,-56.93722 14.6637,-89.56323 -2.2192,-21.90537 -7.3761,-40.30829 -16.9544,-60.50374 -16.7749,-35.36925 -44.4388,-66.76134 -88.6382,-100.58391 -15.5043,-11.86426 -28.1884,-24.30006 -33.8747,-33.21158 -18.1385,-28.42626 -20.0734,-60.78973 -5.3094,-88.80189 4.0676,-7.71751 19.849,-23.80803 28.0842,-28.6344 16.0146,-9.38551 35.7102,-12.94184 53.7416,-9.70384 19.2105,3.44973 35.8597,13.29146 55.0146,32.52044 38.1985,38.3463 62.0671,86.11219 69.9838,140.05184 1.0547,7.1865 2.1566,13.45292 2.4486,13.92538 0.292,0.47246 2.0794,1.14951 3.9719,1.50456 7.0906,1.33021 17.7508,7.70643 25.065,14.99225 10.3879,10.3476 15.8873,21.8023 19.0236,39.62378 1.9488,11.07346 1.939,40.06581 -0.018,53.83507 -2.4932,17.54129 -9.1288,40.54051 -15.1027,52.34685 -1.3127,2.59421 -2.3867,5.47499 -2.3867,6.40173 0,2.34554 -8.0937,16.21915 -15.3906,26.38151 -7.7142,10.74349 -24.6591,28.35093 -35.2596,36.6384 -21.748,17.00243 -46.9386,29.17026 -72.8498,35.18867 -10.7862,2.50532 -20.2948,4.0448 -20.948,3.39158 z"
       id="path4564"
       inkscape:connector-curvature="0"
       sodipodi:nodetypes="sccsccscccccccccscsccsccccsscscscccsccscc" />
    <path
       style="fill:#7bb842"
       d="m 1246.9669,799.66203 c -21.8259,-6.46339 -47.0629,-24.55546 -64.5076,-46.24471 -7.4611,-9.27646 -7.7498,-9.50935 -10.8125,-8.7241 -1.7308,0.44373 -7.6468,0.80162 -13.1468,0.79531 -9.2384,-0.0106 -10.5084,-0.2593 -16.6757,-3.26564 -19.9619,-9.73068 -34.0986,-40.70627 -35.4713,-77.72289 -0.8683,-23.4172 3.1451,-42.34688 13.1245,-61.90211 9.5985,-18.80881 25.8707,-36.95365 43.5515,-48.5635 9.1831,-6.02994 11.6502,-7.13745 10.6578,-4.78439 -4.5904,10.88386 -6.3038,15.76346 -8.3396,23.75 -8.0565,31.60525 3.5442,69.81806 28.9516,95.36706 3.9003,3.92199 5.4294,6.54336 7.8749,13.5 11.2279,31.93954 32.0912,58.79236 60.6215,78.02511 7.7177,5.20267 23.4571,13.09984 32.2048,16.15861 3.575,1.25006 6.8703,2.59287 7.323,2.98402 1.3078,1.13011 -7.4167,11.10039 -13.3338,15.23774 -11.1863,7.82173 -26.9722,9.84633 -42.0223,5.38949 z M 1359.552,672.21865 c -0.261,-0.26094 2.9418,-3.90438 7.1172,-8.09654 11.4571,-11.5031 21.0174,-24.59251 27.802,-38.06491 4.0104,-7.96351 11.4906,-29.24594 11.5141,-32.7594 0.01,-1.26895 2.592,-5.08298 6.0963,-9 28.034,-31.33516 49.042,-72.35363 57.2582,-111.7978 3.9653,-19.03638 5.1432,-30.65592 5.152,-50.82397 l 0.01,-18.82398 3,0.57461 c 6.9689,1.33479 17.7909,7.82011 24.9519,14.95294 10.4221,10.38115 15.9158,21.81358 19.0556,39.65524 1.9488,11.07346 1.939,40.06581 -0.018,53.83507 -2.4932,17.54129 -9.1288,40.54051 -15.1027,52.34685 -1.3127,2.59421 -2.3867,5.47499 -2.3867,6.40173 0,2.34554 -8.0937,16.21915 -15.3906,26.38151 -7.7142,10.74349 -24.6591,28.35093 -35.2596,36.6384 -21.748,17.00243 -46.9386,29.17026 -72.8498,35.18867 -10.7862,2.50532 -20.2948,4.0448 -20.948,3.39158 z"
       id="path4562"
       inkscape:connector-curvature="0"
       sodipodi:nodetypes="sccsccscccccccccscsccccccaccccsccscc" />
    <path
       style="fill:#767b83"
       d="m 1146.2235,744.08529 c -7.6912,-2.84955 -11.5281,-5.50227 -17.4945,-12.09536 -12.8605,-14.21134 -21.3498,-39.81642 -22.376,-67.48993 -0.8683,-23.4172 3.1451,-42.34688 13.1245,-61.90211 9.5985,-18.80881 25.8707,-36.95365 43.5515,-48.5635 9.1831,-6.02994 11.6502,-7.13745 10.6578,-4.78439 -8.8952,21.09071 -10.7819,29.44902 -10.7655,47.69064 0.012,13.80696 -0.1364,14.88205 -3.3915,24.5 -5.1258,15.14543 -6.6162,23.51698 -7.226,40.58677 -0.4137,11.58069 -0.1525,18.06221 1.0277,25.5 2.8289,17.82841 9.2461,36.44108 17.1231,49.66428 4.4231,7.42504 3.64,8.1431 -9.3214,8.54774 -7.6346,0.23835 -10.7279,-0.10484 -14.9097,-1.65414 z m 213.3285,-71.86664 c -0.261,-0.26094 2.9418,-3.90438 7.1172,-8.09654 11.4571,-11.5031 21.0174,-24.59251 27.802,-38.06491 4.0104,-7.96351 11.4906,-29.24594 11.5141,-32.7594 0.01,-1.26895 2.592,-5.08298 6.0963,-9 28.034,-31.33516 49.042,-72.35363 57.2582,-111.7978 3.9653,-19.03638 5.1432,-30.65592 5.152,-50.82397 l 0.01,-18.82398 3,0.57461 c 6.9689,1.33479 17.7909,7.82011 24.9519,14.95294 10.4221,10.38115 15.9158,21.81358 19.0556,39.65524 1.9488,11.07346 1.939,40.06581 -0.018,53.83507 -2.4932,17.54129 -9.1288,40.54051 -15.1027,52.34685 -1.3127,2.59421 -2.3867,5.47499 -2.3867,6.40173 0,2.34554 -8.0937,16.21915 -15.3906,26.38151 -7.7142,10.74349 -24.6591,28.35093 -35.2596,36.6384 -21.748,17.00243 -46.9386,29.17026 -72.8498,35.18867 -10.7862,2.50532 -20.2948,4.0448 -20.948,3.39158 z"
       id="path4560"
       inkscape:connector-curvature="0"
       sodipodi:nodetypes="cscsccccsccsccscccccccccccsccscc" />
    <path
       style="fill:#e66426"
       d="m 1146.2235,744.08529 c -7.6912,-2.84955 -11.5281,-5.50227 -17.4945,-12.09536 -12.8605,-14.21134 -21.3498,-39.81642 -22.376,-67.48993 -0.8683,-23.4172 3.1451,-42.34688 13.1245,-61.90211 9.5985,-18.80881 25.8707,-36.95365 43.5515,-48.5635 9.1831,-6.02994 11.6502,-7.13745 10.6578,-4.78439 -8.8952,21.09071 -10.7819,29.44902 -10.7655,47.69064 0.012,13.80696 -0.1364,14.88205 -3.3915,24.5 -5.1258,15.14543 -6.6162,23.51698 -7.226,40.58677 -0.4137,11.58069 -0.1525,18.06221 1.0277,25.5 2.8289,17.82841 9.2461,36.44108 17.1231,49.66428 4.4231,7.42504 3.64,8.1431 -9.3214,8.54774 -7.6346,0.23835 -10.7279,-0.10484 -14.9097,-1.65414 z m 213.3285,-71.86664 c -0.261,-0.26094 2.9418,-3.90438 7.1172,-8.09654 11.4571,-11.5031 21.0174,-24.59251 27.802,-38.06491 4.0104,-7.96351 11.4906,-29.24594 11.5141,-32.7594 0.01,-1.26895 2.592,-5.08298 6.0963,-9 28.034,-31.33516 49.042,-72.35363 57.2582,-111.7978 3.9653,-19.03638 5.1432,-30.65592 5.152,-50.82397 l 0.01,-18.82398 3,0.57461 c 6.9689,1.33479 17.7909,7.82011 24.9519,14.95294 10.4221,10.38115 15.9158,21.81358 19.0556,39.65524 1.9488,11.07346 1.939,40.06581 -0.018,53.83507 -2.4932,17.54129 -9.1288,40.54051 -15.1027,52.34685 -1.3127,2.59421 -2.3867,5.47499 -2.3867,6.40173 0,2.34554 -8.0937,16.21915 -15.3906,26.38151 -7.7142,10.74349 -24.6591,28.35093 -35.2596,36.6384 -21.748,17.00243 -46.9386,29.17026 -72.8498,35.18867 -10.7862,2.50532 -20.2948,4.0448 -20.948,3.39158 z"
       id="path4558"
       inkscape:connector-curvature="0"
       sodipodi:nodetypes="cscsccccsccsccscccccccccccsccscc" />
    <path
       style="fill:#696e77"
       d="m 1146.2235,744.08529 c -7.6912,-2.84955 -11.5281,-5.50227 -17.4945,-12.09536 -12.8605,-14.21134 -21.3498,-39.81642 -22.376,-67.48993 -0.8683,-23.4172 3.1451,-42.34688 13.1245,-61.90211 9.5985,-18.80881 25.8707,-36.95365 43.5515,-48.5635 9.1831,-6.02994 11.6502,-7.13745 10.6578,-4.78439 -8.8952,21.09071 -10.7819,29.44902 -10.7655,47.69064 0.012,13.80696 -0.1364,14.88205 -3.3915,24.5 -5.1258,15.14543 -6.6162,23.51698 -7.226,40.58677 -0.4137,11.58069 -0.1525,18.06221 1.0277,25.5 2.8289,17.82841 9.2461,36.44108 17.1231,49.66428 4.4231,7.42504 3.64,8.1431 -9.3214,8.54774 -7.6346,0.23835 -10.7279,-0.10484 -14.9097,-1.65414 z"
       id="path4556"
       inkscape:connector-curvature="0"
       sodipodi:nodetypes="cscsccccsccsc" />
    <path
       style="fill:#535963"
       d="m 1146.2235,744.08529 c -7.6912,-2.84955 -11.5281,-5.50227 -17.4945,-12.09536 -12.8605,-14.21134 -21.3498,-39.81642 -22.376,-67.48993 -0.8683,-23.4172 3.1451,-42.34688 13.1245,-61.90211 9.5985,-18.80881 25.8707,-36.95365 43.5515,-48.5635 9.1831,-6.02994 11.6502,-7.13745 10.6578,-4.78439 -8.8952,21.09071 -10.7819,29.44902 -10.7655,47.69064 0.012,13.80696 -0.1364,14.88205 -3.3915,24.5 -5.1258,15.14543 -6.6162,23.51698 -7.226,40.58677 -0.4137,11.58069 -0.1525,18.06221 1.0277,25.5 2.8289,17.82841 9.2461,36.44108 17.1231,49.66428 4.4231,7.42504 3.64,8.1431 -9.3214,8.54774 -7.6346,0.23835 -10.7279,-0.10484 -14.9097,-1.65414 z"
       id="path4554"
       inkscape:connector-curvature="0"
       sodipodi:nodetypes="cscsccccsccsc" />
    <path
       style="fill:#19a249"
       d="m 1146.2235,744.08529 c -7.6912,-2.84955 -11.5281,-5.50227 -17.4945,-12.09536 -12.8605,-14.21134 -21.3498,-39.81642 -22.376,-67.48993 -0.8683,-23.4172 3.1451,-42.34688 13.1245,-61.90211 9.5985,-18.80881 25.8707,-36.95365 43.5515,-48.5635 9.1831,-6.02994 11.6502,-7.13745 10.6578,-4.78439 -8.8952,21.09071 -10.7819,29.44902 -10.7655,47.69064 0.012,13.80696 -0.1364,14.88205 -3.3915,24.5 -5.1258,15.14543 -6.6162,23.51698 -7.226,40.58677 -0.4137,11.58069 -0.1525,18.06221 1.0277,25.5 2.8289,17.82841 9.2461,36.44108 17.1231,49.66428 4.4231,7.42504 3.64,8.1431 -9.3214,8.54774 -7.6346,0.23835 -10.7279,-0.10484 -14.9097,-1.65414 z"
       id="path4552"
       inkscape:connector-curvature="0"
       sodipodi:nodetypes="cscsccccsccsc" />
  </g>
</svg>
